<svg width="31" height="18" viewBox="0 0 31 18" fill="none" xmlns="http://www.w3.org/2000/svg">
<path d="M21.8722 15.1921C21.8852 14.3605 21.8722 4.26932 21.8722 4.26932C21.8722 2.8647 21.3269 2.16238 20.2361 2.16238C19.1454 2.16238 18.4948 2.95711 18.2843 4.54655H16.3324C16.2559 3.75183 16.0454 3.14193 15.7009 2.71684C15.3756 2.29176 14.9355 2.07922 14.3806 2.07922C13.9978 2.07922 13.6917 2.18087 13.462 2.38417C13.2324 2.58747 13.1176 2.90166 13.1176 3.32675C13.1176 4.21388 13.7682 4.84226 15.0694 5.2119C16.3707 5.58154 16.5142 7.32808 14.237 6.84755C11.9599 6.36702 10.8213 5.13797 10.8213 3.16041C10.8213 2.51354 10.9552 1.95908 11.2231 1.49704C11.5102 1.01651 11.912 0.646867 12.4287 0.38812C12.9645 0.129373 13.6151 0 14.3806 0C15.7775 0 16.8012 0.582181 17.4519 1.74654C17.9685 0.619145 18.8966 0.0554467 20.2361 0.0554467C21.6713 0.0554467 22.6568 0.637627 23.1926 1.80199C23.9389 0.637627 25.0679 0.0554467 26.5796 0.0554467C29.5265 0.0554467 31 1.46931 31 4.29705C31 4.29705 31 10.9373 31 15.1921C31.0035 16.21 28.4992 16.21 28.5028 15.1921C28.5063 14.1743 28.5028 4.26932 28.5028 4.26932C28.5028 2.8647 27.8235 2.16238 26.4648 2.16238C25.0679 2.16238 24.3694 2.89242 24.3694 4.35249C24.3694 4.35249 24.3789 14.2426 24.3694 15.1921C24.36 16.1416 21.8592 16.0238 21.8722 15.1921ZM10.6778 15.1921C7.99877 15.1921 6.65926 13.9631 6.65926 11.505V4.26932C6.65926 2.8647 5.97037 2.16238 4.59259 2.16238C3.19568 2.16238 2.49722 2.89242 2.49722 4.35249V10.9228C2.49722 12.2905 3.21481 13.0852 4.65 13.307L4.13333 15.1921C2.90864 15.0628 1.91358 14.6746 1.14815 14.0278C0.382716 13.3809 0 12.3921 0 11.0614V4.43566C0 1.51552 1.53086 0.0554467 4.59259 0.0554467C7.61605 0.0554467 9.12778 1.46931 9.12778 4.29705V11.5604C9.12778 12.7248 9.69228 13.307 10.8213 13.307H14.2657L11.2231 9.12083H13.9213L17.6528 14.3605L17.1648 15.1921H10.6778Z" fill="black"/>
<path d="M7.223 17C6.1845 16.8785 5.363 16.5442 4.7585 15.9973C4.1695 15.4504 3.875 14.6452 3.875 13.5818V9.04692C3.875 6.05407 5.52575 4.55764 8.82725 4.55764C12.1287 4.55764 13.7795 6.09204 13.7795 9.16086V11.9866L17.081 14.4705C17.4375 14.7592 17.8173 14.9035 18.2203 14.9035C18.6233 14.9035 18.8248 14.5996 18.8248 13.992V8.15818C18.8248 5.75782 20.057 4.55764 22.5215 4.55764C24.986 4.55764 26.2183 5.71984 26.2183 8.04424C26.2183 8.04424 26.2183 16.2936 26.2183 17C26.2183 17.7064 24.1955 17.8879 24.1955 17C24.1955 16.1121 24.1955 8.02145 24.1955 8.02145C24.1955 6.86684 23.6375 6.28954 22.5215 6.28954C21.4055 6.28954 20.8475 6.88963 20.8475 8.08981V14.1743C20.8475 15.101 20.6692 15.8074 20.3127 16.2936C19.9562 16.7645 19.437 17 18.755 17C18.1815 17 17.6623 16.8861 17.1973 16.6582C16.7323 16.4303 16.2285 16.1113 15.686 15.7011L13.7795 14.2426C13.7795 15.0934 13.5237 15.7694 13.0122 16.2708C12.5162 16.7569 11.8343 17 10.9663 17C10.1138 17 9.44725 16.7645 8.96675 16.2936C8.48625 15.8074 8.246 15.1466 8.246 14.311C8.246 13.445 8.51725 12.769 9.05975 12.2828C9.54025 11.8423 10.1758 11.622 10.9663 11.622C11.2143 11.622 11.4778 11.6448 11.7568 11.6903V9.09249C11.7568 7.22386 10.7802 6.28954 8.82725 6.28954C6.87425 6.28954 5.89775 7.20107 5.89775 9.02413V13.4906C5.89775 14.6148 6.479 15.2681 7.6415 15.4504C8.804 15.6327 8.2615 17.1215 7.223 17ZM10.8732 15.496C11.4622 15.496 11.7568 15.1162 11.7568 14.3566V13.3083C11.6483 13.2779 11.532 13.2551 11.408 13.2399C11.2995 13.2096 11.1987 13.1944 11.1058 13.1944C10.3772 13.1944 10.013 13.5894 10.013 14.3794C10.013 15.1238 10.2997 15.496 10.8732 15.496Z" fill="url(#paint0_linear_5_17)"/>
<path d="M21.8852 15.1921C21.8852 14.6605 21.8852 4.26932 21.8852 4.26932C21.8852 2.8647 21.3406 2.16238 20.2514 2.16238C19.1622 2.16238 18.5125 2.95711 18.3024 4.54655H16.3533C16.2768 3.75183 16.0666 3.14193 15.7227 2.71684C15.3978 2.29176 14.9583 2.07922 14.4042 2.07922C14.022 2.07922 13.7163 2.18087 13.487 2.38417C13.2577 2.58747 13.143 2.90166 13.143 3.32675C13.143 4.21388 13.7927 4.84226 15.0921 5.2119C16.3915 5.58154 16.5348 7.32808 14.2609 6.84755C11.987 6.36702 10.85 5.13797 10.85 3.16041C10.85 2.51354 10.9838 1.95908 11.2513 1.49704C11.5379 1.01651 11.9392 0.646867 12.4551 0.38812C12.9902 0.129373 13.6399 0 14.4042 0C15.7991 0 16.8214 0.582181 17.4711 1.74654C17.9871 0.619145 18.9138 0.0554467 20.2514 0.0554467C21.6846 0.0554467 22.6687 0.637627 23.2037 1.80199C23.9489 0.637627 25.0763 0.0554467 26.5859 0.0554467C29.5286 0.0554467 31 1.46931 31 4.29705C31 4.29705 31 10.9373 31 15.1921C31 16.21 28.5063 16.21 28.5063 15.1921C28.5063 14.1743 28.5063 4.26932 28.5063 4.26932C28.5063 2.8647 27.828 2.16238 26.4713 2.16238C25.0763 2.16238 24.3789 2.89242 24.3789 4.35249C24.3789 4.35249 24.3789 14.4705 24.3789 15.1921C24.3789 15.9138 21.8852 15.7238 21.8852 15.1921Z" fill="black"/>
<path d="M10.85 13.307H14.2895L11.2513 9.12083H13.9456L17.6718 14.3605L17.1845 15.1921H10.85L10.85 13.307Z" fill="black"/>
<path d="M18.8248 8.15818C18.8248 5.75782 20.057 4.55764 22.5215 4.55764C24.986 4.55764 26.2183 5.71984 26.2183 8.04424C26.2183 8.04424 26.2183 16.2936 26.2183 17C26.2183 17.7064 24.1955 17.8879 24.1955 17C24.1955 16.1121 24.1955 8.02145 24.1955 8.02145C24.1955 6.86684 23.6375 6.28954 22.5215 6.28954C21.4055 6.28954 20.8475 6.88963 20.8475 8.08981L18.8248 8.15818Z" fill="url(#paint1_linear_5_17)"/>
<defs>
<linearGradient id="paint0_linear_5_17" x1="22.5215" y1="4.55764" x2="22.5215" y2="17" gradientUnits="userSpaceOnUse">
<stop stop-color="#E8CA6A"/>
<stop offset="1" stop-color="#C39C1A"/>
</linearGradient>
<linearGradient id="paint1_linear_5_17" x1="22.5215" y1="4.55764" x2="22.5215" y2="17" gradientUnits="userSpaceOnUse">
<stop stop-color="#E8CA6A"/>
<stop offset="1" stop-color="#C39C1A"/>
</linearGradient>
</defs>
</svg>
