<svg width="214" height="89" viewBox="0 0 214 89" fill="none" xmlns="http://www.w3.org/2000/svg">
<g clip-path="url(#clip0_10_39)">
<rect width="214" height="89" fill="white"/>
<path d="M69.9819 67.3855C69.9819 66.7414 69.9819 59.1996 69.9819 59.1996C69.9819 58.1469 69.5584 57.6206 68.7116 57.6206C67.8647 57.6206 67.3596 58.2162 67.1961 59.4073H65.6807C65.6213 58.8117 65.4578 58.3547 65.1904 58.0361C64.9378 57.7175 64.5961 57.5582 64.1652 57.5582C63.8681 57.5582 63.6304 57.6344 63.4521 57.7868C63.2738 57.9391 63.1847 58.1746 63.1847 58.4932C63.1847 59.158 63.6898 59.6289 64.7001 59.906C65.7104 60.183 65.8218 61.4919 64.0538 61.1318C62.2858 60.7716 61.4018 59.8506 61.4018 58.3685C61.4018 57.8837 61.5058 57.4682 61.7138 57.1219C61.9366 56.7618 62.2487 56.4848 62.6498 56.2909C63.0658 56.097 63.571 56 64.1652 56C65.2498 56 66.0447 56.4363 66.5498 57.3089C66.951 56.464 67.6716 56.0416 68.7116 56.0416C69.8259 56.0416 70.591 56.4779 71.007 57.3505C71.5865 56.4779 72.463 56.0416 73.6368 56.0416C75.9248 56.0416 77.0688 57.1012 77.0688 59.2203C77.0688 59.2203 77.0688 66.4713 77.0688 67.3855C77.0688 68.2996 75.1299 68.1629 75.1299 67.3855C75.1299 66.608 75.1299 59.1996 75.1299 59.1996C75.1299 58.1469 74.6025 57.6206 73.5476 57.6206C72.463 57.6206 71.9207 58.1677 71.9207 59.2619C71.9207 59.2619 71.9734 66.7345 71.9207 67.3855C71.868 68.0365 69.9819 68.0295 69.9819 67.3855ZM61.2904 67.3855C59.2103 67.3855 58.1703 66.4644 58.1703 64.6222V59.1996C58.1703 58.1469 57.6355 57.6206 56.5657 57.6206C55.4812 57.6206 54.9389 58.1677 54.9389 59.2619V64.1859C54.9389 65.2109 55.496 65.8065 56.6103 65.9727C57.7246 66.1389 57.16 67.4824 56.2092 67.3855C55.2583 67.2885 54.4857 66.9976 53.8914 66.5129C53.2971 66.0281 53 65.2871 53 64.2898V59.3242C53 57.1358 54.1886 56.0416 56.5657 56.0416C58.9132 56.0416 60.0869 57.1012 60.0869 59.2203V64.6638C60.0869 65.5364 60.5252 65.9727 61.4018 65.9727H64.0761C64.0761 65.9727 62.3162 63.618 61.7138 62.8354C61.1114 62.0529 63.0725 62.0529 63.8087 62.8354C64.5448 63.618 66.7058 66.7622 66.7058 66.7622L66.327 67.3855H61.2904Z" fill="black"/>
<path d="M83.109 67.3855C82.1135 67.2747 81.3261 66.9699 80.7467 66.4713C80.1821 65.9727 79.8998 65.2386 79.8998 64.269V60.1345C79.8998 57.4059 81.4821 56.0416 84.6467 56.0416C87.8113 56.0416 89.3936 57.4405 89.3936 60.2384V62.8147L92.5582 65.0793C92.8999 65.3425 93.2639 65.474 93.6502 65.474C94.0365 65.474 94.2296 65.197 94.2296 64.643V59.3242C94.2296 57.1358 95.4108 56.0416 97.7731 56.0416C100.135 56.0416 101.317 57.1012 101.317 59.2203C101.317 59.2203 101.317 66.7414 101.317 67.3855C101.317 68.0295 99.3777 68.0295 99.3777 67.3855C99.3777 66.7414 99.3777 59.1996 99.3777 59.1996C99.3777 58.1469 98.8428 57.6206 97.7731 57.6206C96.7034 57.6206 96.1685 58.1677 96.1685 59.2619V64.8092C96.1685 65.6541 95.9976 66.2982 95.6559 66.7414C95.3142 67.1708 94.8165 67.3855 94.1628 67.3855C93.6131 67.3855 93.1153 67.2816 92.6696 67.0738C92.2239 66.8661 91.741 66.5752 91.221 66.2012L89.3936 64.8715C89.3936 65.6472 89.1484 66.2635 88.6582 66.7206C88.1827 67.1639 87.529 67.3855 86.697 67.3855C85.8798 67.3855 85.241 67.1708 84.7804 66.7414C84.3198 66.2982 84.0895 65.6957 84.0895 64.9339C84.0895 64.1444 84.3495 63.528 84.8695 63.0848C85.3301 62.6831 85.9393 62.4822 86.697 62.4822C86.9347 62.4822 87.1873 62.503 87.4547 62.5446V60.1761C87.4547 58.4724 86.5187 57.6206 84.6467 57.6206C82.7747 57.6206 81.8387 58.4516 81.8387 60.1137V64.1859C81.8387 65.2109 82.3958 65.8065 83.5101 65.9727C84.6244 66.1389 84.1044 67.4963 83.109 67.3855ZM86.6078 66.0142C87.1724 66.0142 87.4547 65.668 87.4547 64.9754V64.0197C87.3507 63.992 87.2393 63.9712 87.1204 63.9574C87.0164 63.9297 86.9199 63.9158 86.8307 63.9158C86.1324 63.9158 85.7833 64.2759 85.7833 64.9962C85.7833 65.6749 86.0581 66.0142 86.6078 66.0142Z" fill="black"/>
<path d="M111.392 67.3439C110.397 67.2331 109.609 66.9284 109.03 66.4298C108.465 65.9311 108.183 65.197 108.183 64.2275V60.093C108.183 57.3643 109.765 56 112.93 56C116.095 56 117.677 57.3989 117.677 60.1968V62.7731L120.841 65.0377C121.183 65.3009 121.547 65.4325 121.933 65.4325C122.32 65.4325 122.513 65.1555 122.513 64.6014V59.2827C122.513 57.0942 123.694 56 126.056 56C128.419 56 129.6 57.0596 129.6 59.1788C129.6 59.1788 129.6 66.6791 129.6 67.3439C129.6 68.0498 127.661 68.0498 127.661 67.3439C127.661 65.0377 127.661 59.158 127.661 59.158C127.661 58.1053 127.126 57.579 126.056 57.579C124.987 57.579 124.452 58.1261 124.452 59.2203V64.7676C124.452 65.6126 124.281 66.2566 123.939 66.6999C123.597 67.1292 123.1 67.3439 122.446 67.3439C121.896 67.3439 121.399 67.24 120.953 67.0323C120.507 66.8245 120.024 66.5336 119.504 66.1597L117.677 64.83C117.677 65.6056 117.432 66.222 116.941 66.6791C116.466 67.1223 115.812 67.3439 114.98 67.3439C114.163 67.3439 113.524 67.1292 113.064 66.6999C112.603 66.2566 112.373 65.6541 112.373 64.8923C112.373 64.1028 112.633 63.4864 113.153 63.0432C113.613 62.6415 114.223 62.4407 114.98 62.4407C115.218 62.4407 115.471 62.4615 115.738 62.503V60.1345C115.738 58.4308 114.802 57.579 112.93 57.579C111.058 57.579 110.122 58.4101 110.122 60.0722V64.1444C110.122 65.1693 110.679 65.7649 111.793 65.9311C112.398 66.0213 112 67.4116 111.392 67.3439ZM114.891 65.9727C115.456 65.9727 115.738 65.6264 115.738 64.9339V63.9781C115.634 63.9504 115.523 63.9297 115.404 63.9158C115.3 63.8881 115.203 63.8743 115.114 63.8743C114.416 63.8743 114.067 64.2344 114.067 64.9546C114.067 65.6333 114.341 65.9727 114.891 65.9727Z" fill="black"/>
<path d="M135.637 67.3439C134.641 67.2331 133.854 66.9284 133.275 66.4298C132.71 65.9311 132.428 65.197 132.428 64.2275V59.2827C132.428 57.0942 133.616 56 135.993 56C138.341 56 139.515 57.0596 139.515 59.1788V64.6222C139.515 65.4948 139.953 65.9311 140.829 65.9311H144.039C142.404 65.2663 141.587 63.8604 141.587 61.7135V61.1733C141.587 57.8629 143.303 56.2078 146.735 56.2078H151.683V58.2231L144.306 62.0667H146.446C148.11 62.0667 149.38 62.3576 150.256 62.9393C151.148 63.5211 151.594 64.3452 151.594 65.4117C151.594 65.4117 151.683 66.6514 151.594 67.3439C151.504 68.0365 149.655 68.0365 149.655 67.3439C149.655 66.6514 149.655 65.848 149.655 65.848C149.655 64.9477 149.372 64.3036 148.808 63.9158C148.258 63.528 147.523 63.3341 146.602 63.3341H143.37C143.608 64.3867 144.819 65.2524 147.003 65.9311V67.3439H140.718C138.638 67.3439 137.598 66.4228 137.598 64.5807V59.158C137.598 58.1053 137.063 57.579 135.993 57.579C134.909 57.579 134.367 58.1261 134.367 59.2203V64.1444C134.367 65.1693 134.924 65.7649 136.038 65.9311C137.152 66.0973 136.632 67.4547 135.637 67.3439ZM143.37 61.111L149.543 57.5167H146.624C145.584 57.5167 144.782 57.7937 144.217 58.3477C143.652 58.8879 143.37 59.5874 143.37 60.4462V61.111Z" fill="black"/>
<path d="M163.053 67.3647C162.89 67.3647 162.712 67.3439 162.518 67.3024C162.34 67.2608 162.147 67.2054 161.939 67.1362L157.036 65.2663V64.6845C157.987 63.9089 158.707 63.1194 159.198 62.316C159.703 61.5127 159.956 60.7024 159.956 59.8852V59.719C159.956 58.1815 159.547 57.4128 158.73 57.4128H155.944C155.944 57.4128 156.66 58.6871 157.37 59.2411C158.081 59.7952 156.027 59.5133 155.253 59.2411C154.48 58.9689 153.314 56.6233 153.314 56.6233L153.693 56H158.841C160.936 56 161.984 57.0596 161.984 59.1788C161.984 61.2703 161.181 63.0294 159.577 64.456L162.496 65.5779C162.541 65.5918 162.593 65.6056 162.652 65.6195C162.712 65.6195 162.756 65.6195 162.786 65.6195C163.083 65.6195 163.232 65.4256 163.232 65.0377V59.906C163.232 57.302 164.71 56 167.666 56C170.608 56 172.079 57.2604 172.079 59.7813C172.079 59.7813 172.079 66.5571 172.079 67.3439C172.079 68.1307 170.14 68.0365 170.14 67.3439C170.14 66.6514 170.14 59.7605 170.14 59.7605C170.14 58.3062 169.316 57.579 167.666 57.579C166.002 57.579 165.17 58.327 165.17 59.8229V65.1832C165.17 65.9034 164.992 66.4505 164.636 66.8245C164.279 67.1846 163.752 67.3647 163.053 67.3647Z" fill="black"/>
<path d="M180.237 81.1949C179.776 83.3002 178.053 80.6112 178.053 80.6112C178.394 78.7274 180.653 80.8832 180.816 79.3319C180.994 77.7806 181.083 76.4163 181.083 75.239C181.083 73.6045 180.861 72.2264 180.415 71.1045C179.984 69.9964 179.271 69.1238 178.275 68.4866C177.28 67.8633 175.943 67.4755 174.264 67.3231V66.1804C175.037 65.6541 175.668 65.0862 176.158 64.4768C176.649 63.8535 177.102 63.1194 177.518 62.2745C176.864 62.1775 176.299 61.9905 175.824 61.7135C175.349 61.4365 174.977 61.0764 174.71 60.6331C174.457 60.1761 174.331 59.6497 174.331 59.0541C174.331 58.1538 174.576 57.4197 175.066 56.8518C175.571 56.2839 176.292 56 177.228 56C178.194 56 178.937 56.2978 179.457 56.8934C179.977 57.4751 180.237 58.2231 180.237 59.1372C180.237 59.899 180.066 60.7162 179.724 61.5889C179.397 62.4615 178.944 63.3064 178.365 64.1236C177.785 64.9408 177.139 65.6541 176.426 66.2635C177.986 66.4298 179.249 66.8661 180.214 67.5725C181.18 68.2927 181.886 69.2346 182.331 70.3981C182.777 71.5615 183 72.912 183 74.4494C183 75.7376 182.889 77.2335 182.666 78.9372C182.443 80.6408 180.697 79.0895 180.237 81.1949ZM178.053 60.7578C178.171 60.4531 178.253 60.1691 178.298 59.906C178.342 59.6428 178.365 59.3935 178.365 59.158C178.365 58.7148 178.268 58.3477 178.075 58.0569C177.882 57.7521 177.592 57.5998 177.206 57.5998C176.834 57.5998 176.552 57.7452 176.359 58.0361C176.166 58.3131 176.069 58.6525 176.069 59.0541C176.069 60.0653 176.73 60.6331 178.053 60.7578Z" fill="black"/>
<g filter="url(#filter0_g_10_39)">
<path d="M35.8294 33.4546C35.8294 33.2365 35.8294 33.0184 35.8294 32.8002C35.8402 32.5684 35.8511 32.3367 35.8619 32.1049C37.9326 30.7142 40.1552 30.0189 42.5295 30.0189C44.9038 30.0189 46.6059 30.5847 47.6359 31.7163C48.6658 32.8479 49.1808 34.7226 49.1808 37.3403V46.2569C49.9505 46.4615 50.5631 46.7001 51.0184 46.9727V50.613C49.9126 51.2811 48.2918 51.6151 46.156 51.6151C45.9283 50.8652 45.7386 49.9858 45.5868 48.9769C44.6327 50.7357 42.9035 51.6151 40.3991 51.6151C39.4125 51.6151 38.5072 51.3697 37.6833 50.8789C36.8702 50.388 36.2197 49.6927 35.7318 48.7929C35.2439 47.8794 35 46.7955 35 45.5412C35 43.6733 35.4933 42.2077 36.4799 41.1442C37.4665 40.0671 38.9355 39.5286 40.887 39.5286H44.5297V37.5039C44.5297 35.3225 43.6082 34.2318 41.7651 34.2318C41.0496 34.2318 40.4804 34.3204 40.0576 34.4976C40.0034 35.6838 39.8733 36.5905 39.6673 37.2176H36.3986C36.0191 36.2223 35.8294 34.968 35.8294 33.4546ZM41.8302 47.3409C42.9686 47.3409 43.8684 46.925 44.5297 46.0933V42.6576H42.188C40.5943 42.6576 39.7974 43.4279 39.7974 44.9685C39.7974 45.6639 39.9654 46.2365 40.3015 46.6864C40.6485 47.1227 41.158 47.3409 41.8302 47.3409Z" fill="url(#paint0_linear_10_39)" fill-opacity="0.82"/>
<path d="M52.4651 24.7834L52.7904 21.5522C54.048 21.1841 55.208 21 56.2705 21C57.333 21 58.2274 21.0409 58.9538 21.1227V31.5936C59.4959 31.1573 60.206 30.7892 61.0842 30.4893C61.9732 30.1757 62.7646 30.0189 63.4585 30.0189C65.6593 30.0189 67.1771 30.6869 68.0119 32.0231C68.8576 33.3592 69.2804 35.3975 69.2804 38.1379V46.6455C70.1477 47.0545 70.7603 47.5249 71.118 48.0566L70.7765 51.2879H63.117L62.7917 48.0566C63.0953 47.5249 63.7078 47.0545 64.6294 46.6455V38.3424C64.6294 36.8291 64.4342 35.8201 64.0439 35.3157C63.7404 34.9067 63.2904 34.6612 62.6941 34.5794C62.1087 34.484 61.4799 34.5454 60.8077 34.7635C60.1355 34.9816 59.5176 35.3498 58.9538 35.8679V46.6455C59.8211 47.0545 60.4337 47.5249 60.7914 48.0566L60.4662 51.2879H52.7904L52.4651 48.0566C52.7687 47.5249 53.3812 47.0545 54.3028 46.6455V26.1945C53.5113 25.8673 52.8988 25.397 52.4651 24.7834Z" fill="url(#paint1_linear_10_39)" fill-opacity="0.82"/>
<path d="M73.6218 33.4546C73.6218 33.2365 73.6218 33.0184 73.6218 32.8002C73.6326 32.5684 73.6435 32.3367 73.6543 32.1049C75.7251 30.7142 77.9476 30.0189 80.3219 30.0189C82.6962 30.0189 84.3983 30.5847 85.4283 31.7163C86.4582 32.8479 86.9732 34.7226 86.9732 37.3403V46.2569C87.7429 46.4615 88.3555 46.7001 88.8108 46.9727V50.613C87.705 51.2811 86.0842 51.6151 83.9484 51.6151C83.7207 50.8652 83.531 49.9858 83.3792 48.9769C82.4252 50.7357 80.6959 51.6151 78.1915 51.6151C77.2049 51.6151 76.2997 51.3697 75.4757 50.8789C74.6626 50.388 74.0121 49.6927 73.5242 48.7929C73.0364 47.8794 72.7924 46.7955 72.7924 45.5412C72.7924 43.6733 73.2857 42.2077 74.2723 41.1442C75.2589 40.0671 76.7279 39.5286 78.6794 39.5286H82.3222V37.5039C82.3222 35.3225 81.4006 34.2318 79.5576 34.2318C78.842 34.2318 78.2728 34.3204 77.85 34.4976C77.7958 35.6838 77.6657 36.5905 77.4597 37.2176H74.191C73.8115 36.2223 73.6218 34.968 73.6218 33.4546ZM79.6226 47.3409C80.761 47.3409 81.6608 46.925 82.3222 46.0933V42.6576H79.9804C78.3867 42.6576 77.5898 43.4279 77.5898 44.9685C77.5898 45.6639 77.7579 46.2365 78.0939 46.6864C78.4409 47.1227 78.9504 47.3409 79.6226 47.3409Z" fill="url(#paint2_linear_10_39)" fill-opacity="0.82"/>
<path d="M97.3154 33.7819C95.8518 33.7819 95.12 34.3272 95.12 35.4179C95.12 36.4541 95.8897 37.2176 97.4292 37.7084L100.047 38.5878C102.758 39.4877 104.113 41.4578 104.113 44.4982C104.113 46.5842 103.533 48.2952 102.373 49.6314C101.788 50.2858 101.002 50.7766 100.015 51.1038C99.0284 51.4174 97.9659 51.5878 96.8275 51.6151C95.7 51.6424 94.605 51.5401 93.5425 51.3083C92.4801 51.0766 91.5856 50.7357 90.8592 50.2858C90.8484 50.1358 90.8376 49.9858 90.8267 49.8359C90.8267 49.6723 90.8267 49.5155 90.8267 49.3655C90.8267 47.8249 91.0707 46.441 91.5585 45.2139H94.3231C94.6267 45.9093 94.8164 46.6046 94.8923 47.2999C95.3151 47.4772 95.9494 47.5658 96.795 47.5658C98.7465 47.5658 99.7222 46.8637 99.7222 45.4594C99.7222 45.0231 99.5921 44.655 99.3319 44.355C99.05 44.0687 98.5242 43.7824 97.7545 43.4961L95.12 42.5349C93.7648 42.0577 92.7077 41.3555 91.9488 40.4284C91.2008 39.4877 90.8267 38.1038 90.8267 36.2769C90.8267 34.4363 91.4176 32.9365 92.5993 31.7777C93.1848 31.1914 93.9166 30.7551 94.7947 30.4688C95.6837 30.1825 96.6324 30.0325 97.6406 30.0189C98.6489 29.9916 99.6355 30.087 100.6 30.3052C101.565 30.5097 102.427 30.8165 103.186 31.2255C103.197 31.3618 103.202 31.4982 103.202 31.6345C103.213 31.7708 103.219 31.914 103.219 32.064C103.219 33.4955 102.975 34.8385 102.487 36.0928H99.7548C99.4512 35.4248 99.2615 34.7499 99.1856 34.0682C98.5459 33.8773 97.9225 33.7819 97.3154 33.7819Z" fill="url(#paint3_linear_10_39)" fill-opacity="0.82"/>
<path d="M114.358 51.6151C111.691 51.6151 109.685 50.7221 108.341 48.936C106.996 47.15 106.324 44.5527 106.324 41.1442C106.324 39.0855 106.557 37.3131 107.023 35.827C107.49 34.3272 108.124 33.1683 108.926 32.3503C110.476 30.796 112.287 30.0189 114.358 30.0189C115.735 30.0189 116.895 30.3052 117.838 30.8778C118.792 31.4368 119.513 32.3844 120.001 33.7205C120.499 35.043 120.749 36.8495 120.749 39.14C120.749 41.1578 119.957 42.1668 118.374 42.1668H111.154C111.241 43.9255 111.599 45.1662 112.227 45.8888C112.867 46.6114 113.875 46.9727 115.252 46.9727C116 46.9727 116.716 46.8637 117.399 46.6455C118.093 46.4137 118.597 46.1888 118.911 45.9706L119.383 45.6434L120.375 48.9769C120.256 49.1542 120.066 49.3996 119.806 49.7132C119.632 49.9177 119.28 50.1699 118.749 50.4698C118.217 50.7698 117.567 51.0357 116.797 51.2674C116.038 51.4992 115.225 51.6151 114.358 51.6151ZM111.187 38.6901L116.456 38.4242C116.499 38.0834 116.521 37.613 116.521 37.0131C116.521 36.4541 116.342 35.861 115.984 35.2339C115.626 34.6067 115.008 34.2931 114.13 34.2931C113.252 34.2931 112.58 34.6272 112.113 35.2952C111.647 35.9633 111.338 37.0949 111.187 38.6901Z" fill="url(#paint4_linear_10_39)" fill-opacity="0.82"/>
<path d="M122.765 33.5773L123.106 30.3461C124.364 29.978 125.518 29.7939 126.57 29.7939C127.101 29.7939 127.589 29.8076 128.034 29.8348C128.489 29.8485 128.901 29.8825 129.27 29.9371V51.2879C129.27 53.4421 129.058 55.1531 128.635 56.4211C128.223 57.7027 127.557 58.6162 126.635 59.1615C125.714 59.7205 124.494 60 122.976 60C122.282 60 121.648 59.9318 121.073 59.7955L121.48 55.6848C121.556 55.6985 121.691 55.7053 121.887 55.7053C122.082 55.7189 122.336 55.7257 122.651 55.7257C123.269 55.7257 123.746 55.4326 124.082 54.8464C124.429 54.2601 124.602 53.1966 124.602 51.656V34.9885C123.811 34.6612 123.198 34.1909 122.765 33.5773Z" fill="url(#paint5_linear_10_39)" fill-opacity="0.82"/>
<path d="M133.107 33.4546C133.107 33.2365 133.107 33.0184 133.107 32.8002C133.118 32.5684 133.129 32.3367 133.139 32.1049C135.21 30.7142 137.433 30.0189 139.807 30.0189C142.181 30.0189 143.883 30.5847 144.913 31.7163C145.943 32.8479 146.458 34.7226 146.458 37.3403V46.2569C147.228 46.4615 147.841 46.7001 148.296 46.9727V50.613C147.19 51.2811 145.569 51.6151 143.433 51.6151C143.206 50.8652 143.016 49.9858 142.864 48.9769C141.91 50.7357 140.181 51.6151 137.677 51.6151C136.69 51.6151 135.785 51.3697 134.961 50.8789C134.148 50.388 133.497 49.6927 133.009 48.7929C132.521 47.8794 132.278 46.7955 132.278 45.5412C132.278 43.6733 132.771 42.2077 133.757 41.1442C134.744 40.0671 136.213 39.5286 138.164 39.5286H141.807V37.5039C141.807 35.3225 140.886 34.2318 139.043 34.2318C138.327 34.2318 137.758 34.3204 137.335 34.4976C137.281 35.6838 137.151 36.5905 136.945 37.2176H133.676C133.297 36.2223 133.107 34.968 133.107 33.4546ZM139.108 47.3409C140.246 47.3409 141.146 46.925 141.807 46.0933V42.6576H139.465C137.872 42.6576 137.075 43.4279 137.075 44.9685C137.075 45.6639 137.243 46.2365 137.579 46.6864C137.926 47.1227 138.436 47.3409 139.108 47.3409Z" fill="url(#paint6_linear_10_39)" fill-opacity="0.82"/>
<path d="M160.134 35.4997C158.465 35.4997 157.299 35.9019 156.638 36.7063V46.2979C158.459 46.7341 159.695 47.3204 160.346 48.0566L160.004 51.2879H150.474L150.149 48.0566C150.453 47.5249 151.065 47.0545 151.987 46.6455V34.9885C151.195 34.6612 150.583 34.1909 150.149 33.5773L150.474 30.3461C151.667 30.0052 152.767 29.8348 153.776 29.8348C154.264 29.8348 154.708 29.8485 155.109 29.8757C155.521 29.8894 155.89 29.9098 156.215 29.9371V32.5752C156.725 31.8117 157.381 31.1846 158.183 30.6938C158.855 30.2984 159.527 30.0666 160.199 29.9984C160.872 29.9303 161.376 29.9916 161.712 30.1825L161.614 35.6224C161.18 35.5406 160.687 35.4997 160.134 35.4997Z" fill="url(#paint7_linear_10_39)" fill-opacity="0.82"/>
<path d="M163.711 33.4546C163.711 33.2365 163.711 33.0184 163.711 32.8002C163.722 32.5684 163.733 32.3367 163.744 32.1049C165.815 30.7142 168.037 30.0189 170.411 30.0189C172.786 30.0189 174.488 30.5847 175.518 31.7163C176.548 32.8479 177.063 34.7226 177.063 37.3403V46.2569C177.832 46.4615 178.445 46.7001 178.9 46.9727V50.613C177.795 51.2811 176.174 51.6151 174.038 51.6151C173.81 50.8652 173.621 49.9858 173.469 48.9769C172.515 50.7357 170.785 51.6151 168.281 51.6151C167.294 51.6151 166.389 51.3697 165.565 50.8789C164.752 50.388 164.102 49.6927 163.614 48.7929C163.126 47.8794 162.882 46.7955 162.882 45.5412C162.882 43.6733 163.375 42.2077 164.362 41.1442C165.348 40.0671 166.817 39.5286 168.769 39.5286H172.412V37.5039C172.412 35.3225 171.49 34.2318 169.647 34.2318C168.932 34.2318 168.362 34.3204 167.94 34.4976C167.885 35.6838 167.755 36.5905 167.549 37.2176H164.281C163.901 36.2223 163.711 34.968 163.711 33.4546ZM169.712 47.3409C170.851 47.3409 171.75 46.925 172.412 46.0933V42.6576H170.07C168.476 42.6576 167.679 43.4279 167.679 44.9685C167.679 45.6639 167.847 46.2365 168.183 46.6864C168.53 47.1227 169.04 47.3409 169.712 47.3409Z" fill="url(#paint8_linear_10_39)" fill-opacity="0.82"/>
<path d="M180.347 24.7834L180.672 21.5522C181.93 21.1841 183.09 21 184.152 21C185.215 21 186.109 21.0409 186.836 21.1227V31.5936C187.378 31.1573 188.088 30.7892 188.966 30.4893C189.855 30.1757 190.647 30.0189 191.34 30.0189C193.541 30.0189 195.059 30.6869 195.894 32.0231C196.74 33.3592 197.162 35.3975 197.162 38.1379V46.6455C198.03 47.0545 198.642 47.5249 199 48.0566L198.658 51.2879H190.999L190.674 48.0566C190.977 47.5249 191.59 47.0545 192.511 46.6455V38.3424C192.511 36.8291 192.316 35.8201 191.926 35.3157C191.622 34.9067 191.172 34.6612 190.576 34.5794C189.991 34.484 189.362 34.5454 188.69 34.7635C188.017 34.9816 187.4 35.3498 186.836 35.8679V46.6455C187.703 47.0545 188.316 47.5249 188.673 48.0566L188.348 51.2879H180.672L180.347 48.0566C180.651 47.5249 181.263 47.0545 182.185 46.6455V26.1945C181.393 25.8673 180.781 25.397 180.347 24.7834Z" fill="url(#paint9_linear_10_39)" fill-opacity="0.82"/>
</g>
<path d="M35.5404 34.9209C35.5404 34.7646 35.5404 34.6084 35.5404 34.4521C35.5502 34.2861 35.5599 34.1201 35.5697 33.9541C37.4349 32.958 39.4369 32.46 41.5756 32.46C43.7142 32.46 45.2474 32.8652 46.1752 33.6758C47.1029 34.4863 47.5668 35.8291 47.5668 37.7041V44.0908C48.2601 44.2373 48.8119 44.4082 49.222 44.6035V47.2109C48.226 47.6895 46.766 47.9287 44.8422 47.9287C44.6371 47.3916 44.4662 46.7617 44.3295 46.0391C43.4701 47.2988 41.9125 47.9287 39.6566 47.9287C38.7679 47.9287 37.9525 47.7529 37.2103 47.4014C36.4779 47.0498 35.892 46.5518 35.4525 45.9072C35.0131 45.2529 34.7933 44.4766 34.7933 43.5781C34.7933 42.2402 35.2377 41.1904 36.1263 40.4287C37.015 39.6572 38.3383 39.2715 40.0961 39.2715H43.3773V37.8213C43.3773 36.2588 42.5472 35.4775 40.8871 35.4775C40.2426 35.4775 39.7299 35.541 39.349 35.668C39.3002 36.5176 39.183 37.167 38.9974 37.6162H36.0531C35.7113 36.9033 35.5404 36.0049 35.5404 34.9209ZM40.9457 44.8672C41.9711 44.8672 42.7816 44.5693 43.3773 43.9736V41.5127H41.2679C39.8324 41.5127 39.1146 42.0645 39.1146 43.168C39.1146 43.666 39.266 44.0762 39.5687 44.3984C39.8812 44.7109 40.3402 44.8672 40.9457 44.8672Z" fill="black" fill-opacity="0.92"/>
<path d="M50.5252 28.71L50.8181 26.3955C51.951 26.1318 52.9959 26 53.9529 26C54.9099 26 55.7156 26.0293 56.3699 26.0879V33.5879C56.8582 33.2754 57.4978 33.0117 58.2888 32.7969C59.0896 32.5723 59.8025 32.46 60.4275 32.46C62.4099 32.46 63.7771 32.9385 64.5291 33.8955C65.2908 34.8525 65.6717 36.3125 65.6717 38.2754V44.3691C66.4529 44.6621 67.0047 44.999 67.3269 45.3799L67.0193 47.6943H60.1199L59.8269 45.3799C60.1004 44.999 60.6521 44.6621 61.4822 44.3691V38.4219C61.4822 37.3379 61.3064 36.6152 60.9549 36.2539C60.6814 35.9609 60.2761 35.7852 59.739 35.7266C59.2117 35.6582 58.6453 35.7021 58.0398 35.8584C57.4344 36.0146 56.8777 36.2783 56.3699 36.6494V44.3691C57.1511 44.6621 57.7029 44.999 58.0252 45.3799L57.7322 47.6943H50.8181L50.5252 45.3799C50.7986 44.999 51.3504 44.6621 52.1804 44.3691V29.7207C51.4676 29.4863 50.9158 29.1494 50.5252 28.71Z" fill="black" fill-opacity="0.92"/>
<path d="M69.5822 34.9209C69.5822 34.7646 69.5822 34.6084 69.5822 34.4521C69.592 34.2861 69.6017 34.1201 69.6115 33.9541C71.4767 32.958 73.4787 32.46 75.6174 32.46C77.756 32.46 79.2892 32.8652 80.217 33.6758C81.1447 34.4863 81.6086 35.8291 81.6086 37.7041V44.0908C82.3019 44.2373 82.8537 44.4082 83.2638 44.6035V47.2109C82.2678 47.6895 80.8078 47.9287 78.884 47.9287C78.6789 47.3916 78.508 46.7617 78.3713 46.0391C77.5119 47.2988 75.9543 47.9287 73.6984 47.9287C72.8097 47.9287 71.9943 47.7529 71.2521 47.4014C70.5197 47.0498 69.9338 46.5518 69.4943 45.9072C69.0549 45.2529 68.8351 44.4766 68.8351 43.5781C68.8351 42.2402 69.2795 41.1904 70.1681 40.4287C71.0568 39.6572 72.3801 39.2715 74.1379 39.2715H77.4191V37.8213C77.4191 36.2588 76.589 35.4775 74.9289 35.4775C74.2844 35.4775 73.7717 35.541 73.3908 35.668C73.342 36.5176 73.2248 37.167 73.0392 37.6162H70.0949C69.7531 36.9033 69.5822 36.0049 69.5822 34.9209ZM74.9875 44.8672C76.0129 44.8672 76.8234 44.5693 77.4191 43.9736V41.5127H75.3097C73.8742 41.5127 73.1564 42.0645 73.1564 43.168C73.1564 43.666 73.3078 44.0762 73.6105 44.3984C73.923 44.7109 74.382 44.8672 74.9875 44.8672Z" fill="black" fill-opacity="0.92"/>
<path d="M90.9244 35.1553C89.606 35.1553 88.9469 35.5459 88.9469 36.3271C88.9469 37.0693 89.6402 37.6162 91.0269 37.9678L93.3853 38.5977C95.8267 39.2422 97.0474 40.6533 97.0474 42.8311C97.0474 44.3252 96.525 45.5508 95.4801 46.5078C94.9527 46.9766 94.2447 47.3281 93.356 47.5625C92.4674 47.7871 91.5103 47.9092 90.4849 47.9287C89.4693 47.9482 88.483 47.875 87.526 47.709C86.5689 47.543 85.7633 47.2988 85.109 46.9766C85.0992 46.8691 85.0894 46.7617 85.0797 46.6543C85.0797 46.5371 85.0797 46.4248 85.0797 46.3174C85.0797 45.2139 85.2994 44.2227 85.7388 43.3438H88.2291C88.5025 43.8418 88.6734 44.3398 88.7418 44.8379C89.1226 44.9648 89.6939 45.0283 90.4556 45.0283C92.2135 45.0283 93.0924 44.5254 93.0924 43.5195C93.0924 43.207 92.9752 42.9434 92.7408 42.7285C92.4869 42.5234 92.0133 42.3184 91.3199 42.1133L88.9469 41.4248C87.7262 41.083 86.774 40.5801 86.0904 39.916C85.4166 39.2422 85.0797 38.251 85.0797 36.9424C85.0797 35.624 85.6119 34.5498 86.6763 33.7197C87.2037 33.2998 87.8629 32.9873 88.6539 32.7822C89.4547 32.5771 90.3092 32.4697 91.2174 32.46C92.1256 32.4404 93.0142 32.5088 93.8834 32.665C94.7525 32.8115 95.5289 33.0312 96.2125 33.3242C96.2222 33.4219 96.2271 33.5195 96.2271 33.6172C96.2369 33.7148 96.2418 33.8174 96.2418 33.9248C96.2418 34.9502 96.022 35.9121 95.5826 36.8105H93.1217C92.8482 36.332 92.6773 35.8486 92.609 35.3604C92.0328 35.2236 91.4713 35.1553 90.9244 35.1553Z" fill="black"/>
<path d="M106.275 47.9287C103.873 47.9287 102.066 47.2891 100.855 46.0098C99.6445 44.7305 99.039 42.8701 99.039 40.4287C99.039 38.9541 99.249 37.6846 99.6689 36.6201C100.089 35.5459 100.66 34.7158 101.383 34.1299C102.779 33.0166 104.41 32.46 106.275 32.46C107.516 32.46 108.561 32.665 109.41 33.0752C110.27 33.4756 110.919 34.1543 111.358 35.1113C111.808 36.0586 112.032 37.3525 112.032 38.9932C112.032 40.4385 111.319 41.1611 109.894 41.1611H103.39C103.468 42.4209 103.79 43.3096 104.356 43.8271C104.933 44.3447 105.841 44.6035 107.081 44.6035C107.755 44.6035 108.399 44.5254 109.015 44.3691C109.64 44.2031 110.094 44.042 110.377 43.8857L110.802 43.6514L111.695 46.0391C111.588 46.166 111.417 46.3418 111.183 46.5664C111.026 46.7129 110.709 46.8936 110.23 47.1084C109.752 47.3232 109.166 47.5137 108.473 47.6797C107.789 47.8457 107.057 47.9287 106.275 47.9287ZM103.419 38.6709L108.165 38.4805C108.204 38.2363 108.224 37.8994 108.224 37.4697C108.224 37.0693 108.062 36.6445 107.74 36.1953C107.418 35.7461 106.861 35.5215 106.07 35.5215C105.279 35.5215 104.674 35.7607 104.254 36.2393C103.834 36.7178 103.556 37.5283 103.419 38.6709Z" fill="black"/>
<path d="M113.848 35.0088L114.156 32.6943C115.288 32.4307 116.328 32.2988 117.276 32.2988C117.754 32.2988 118.194 32.3086 118.594 32.3281C119.004 32.3379 119.375 32.3623 119.707 32.4014V47.6943C119.707 49.2373 119.517 50.4629 119.136 51.3711C118.765 52.2891 118.164 52.9434 117.334 53.334C116.504 53.7344 115.406 53.9346 114.038 53.9346C113.413 53.9346 112.842 53.8857 112.325 53.7881L112.691 50.8438C112.759 50.8535 112.881 50.8584 113.057 50.8584C113.233 50.8682 113.462 50.873 113.745 50.873C114.302 50.873 114.732 50.6631 115.035 50.2432C115.347 49.8232 115.503 49.0615 115.503 47.958V36.0195C114.79 35.7852 114.239 35.4482 113.848 35.0088Z" fill="black" fill-opacity="0.92"/>
<path d="M123.164 34.9209C123.164 34.7646 123.164 34.6084 123.164 34.4521C123.174 34.2861 123.183 34.1201 123.193 33.9541C125.058 32.958 127.06 32.46 129.199 32.46C131.338 32.46 132.871 32.8652 133.799 33.6758C134.726 34.4863 135.19 35.8291 135.19 37.7041V44.0908C135.884 44.2373 136.435 44.4082 136.845 44.6035V47.2109C135.849 47.6895 134.389 47.9287 132.466 47.9287C132.261 47.3916 132.09 46.7617 131.953 46.0391C131.094 47.2988 129.536 47.9287 127.28 47.9287C126.391 47.9287 125.576 47.7529 124.834 47.4014C124.101 47.0498 123.515 46.5518 123.076 45.9072C122.636 45.2529 122.417 44.4766 122.417 43.5781C122.417 42.2402 122.861 41.1904 123.75 40.4287C124.638 39.6572 125.962 39.2715 127.72 39.2715H131.001V37.8213C131.001 36.2588 130.171 35.4775 128.511 35.4775C127.866 35.4775 127.353 35.541 126.972 35.668C126.924 36.5176 126.806 37.167 126.621 37.6162H123.677C123.335 36.9033 123.164 36.0049 123.164 34.9209ZM128.569 44.8672C129.595 44.8672 130.405 44.5693 131.001 43.9736V41.5127H128.891C127.456 41.5127 126.738 42.0645 126.738 43.168C126.738 43.666 126.889 44.0762 127.192 44.3984C127.505 44.7109 127.964 44.8672 128.569 44.8672Z" fill="black" fill-opacity="0.92"/>
<path d="M147.509 36.3857C146.005 36.3857 144.955 36.6738 144.36 37.25V44.1201C146 44.4326 147.113 44.8525 147.699 45.3799L147.392 47.6943H138.808L138.515 45.3799C138.788 44.999 139.34 44.6621 140.17 44.3691V36.0195C139.457 35.7852 138.905 35.4482 138.515 35.0088L138.808 32.6943C139.882 32.4502 140.873 32.3281 141.781 32.3281C142.221 32.3281 142.621 32.3379 142.983 32.3574C143.354 32.3672 143.686 32.3818 143.979 32.4014V34.291C144.438 33.7441 145.028 33.2949 145.751 32.9434C146.357 32.6602 146.962 32.4941 147.568 32.4453C148.173 32.3965 148.627 32.4404 148.93 32.5771L148.842 36.4736C148.451 36.415 148.007 36.3857 147.509 36.3857Z" fill="black" fill-opacity="0.92"/>
<path d="M150.731 34.9209C150.731 34.7646 150.731 34.6084 150.731 34.4521C150.741 34.2861 150.751 34.1201 150.76 33.9541C152.626 32.958 154.628 32.46 156.766 32.46C158.905 32.46 160.438 32.8652 161.366 33.6758C162.294 34.4863 162.757 35.8291 162.757 37.7041V44.0908C163.451 44.2373 164.003 44.4082 164.413 44.6035V47.2109C163.417 47.6895 161.957 47.9287 160.033 47.9287C159.828 47.3916 159.657 46.7617 159.52 46.0391C158.661 47.2988 157.103 47.9287 154.847 47.9287C153.959 47.9287 153.143 47.7529 152.401 47.4014C151.669 47.0498 151.083 46.5518 150.643 45.9072C150.204 45.2529 149.984 44.4766 149.984 43.5781C149.984 42.2402 150.428 41.1904 151.317 40.4287C152.206 39.6572 153.529 39.2715 155.287 39.2715H158.568V37.8213C158.568 36.2588 157.738 35.4775 156.078 35.4775C155.433 35.4775 154.92 35.541 154.54 35.668C154.491 36.5176 154.374 37.167 154.188 37.6162H151.244C150.902 36.9033 150.731 36.0049 150.731 34.9209ZM156.136 44.8672C157.162 44.8672 157.972 44.5693 158.568 43.9736V41.5127H156.459C155.023 41.5127 154.305 42.0645 154.305 43.168C154.305 43.666 154.457 44.0762 154.759 44.3984C155.072 44.7109 155.531 44.8672 156.136 44.8672Z" fill="black" fill-opacity="0.92"/>
<path d="M165.716 28.71L166.009 26.3955C167.142 26.1318 168.186 26 169.144 26C170.101 26 170.906 26.0293 171.561 26.0879V33.5879C172.049 33.2754 172.688 33.0117 173.479 32.7969C174.28 32.5723 174.993 32.46 175.618 32.46C177.601 32.46 178.968 32.9385 179.72 33.8955C180.481 34.8525 180.862 36.3125 180.862 38.2754V44.3691C181.644 44.6621 182.195 44.999 182.518 45.3799L182.21 47.6943H175.311L175.018 45.3799C175.291 44.999 175.843 44.6621 176.673 44.3691V38.4219C176.673 37.3379 176.497 36.6152 176.145 36.2539C175.872 35.9609 175.467 35.7852 174.93 35.7266C174.402 35.6582 173.836 35.7021 173.23 35.8584C172.625 36.0146 172.068 36.2783 171.561 36.6494V44.3691C172.342 44.6621 172.894 44.999 173.216 45.3799L172.923 47.6943H166.009L165.716 45.3799C165.989 44.999 166.541 44.6621 167.371 44.3691V29.7207C166.658 29.4863 166.106 29.1494 165.716 28.71Z" fill="black" fill-opacity="0.92"/>
<path d="M9 24.7297L9.43898 21H19.6453C23.1718 21 25.7471 21.2121 27.3714 21.6362C28.9663 22.075 30.1077 22.5942 30.7954 23.1939C32.3319 24.5103 33.1001 26.536 33.1001 29.2711C33.1001 31.3041 32.0026 33.2347 29.8077 35.063C32.6026 36.4671 34 39.0852 34 42.9172C34 45.9155 33.0123 48.146 31.0369 49.6086C29.0761 51.0566 26.1495 51.8537 22.2572 52H9.43898L9 48.2703C9.39508 47.7584 10.2218 47.2611 11.4802 46.7785V26.2435C10.2365 25.8047 9.40972 25.3001 9 24.7297ZM20.2818 25.8924H17.9552V33.6589H21.6207C23.1572 33.6589 24.3278 33.2713 25.1326 32.4961C25.952 31.7209 26.3617 30.7702 26.3617 29.644C26.3617 28.5178 26.0764 27.6695 25.5057 27.0991C24.935 26.5287 24.2692 26.1849 23.5083 26.0679C22.7621 25.9509 21.6866 25.8924 20.2818 25.8924ZM21.95 38.5732H17.9552V47.1076H21.05C23.084 47.1076 24.6204 46.8077 25.6594 46.2081C26.7129 45.5938 27.2397 44.5114 27.2397 42.9611C27.2397 41.3961 26.83 40.2772 26.0105 39.6044C25.1911 38.917 23.8376 38.5732 21.95 38.5732Z" fill="black"/>
<path d="M37.8722 69.1921C37.8852 68.3605 37.8722 58.2693 37.8722 58.2693C37.8722 56.8647 37.3269 56.1624 36.2361 56.1624C35.1454 56.1624 34.4948 56.9571 34.2843 58.5466H32.3324C32.2559 57.7518 32.0454 57.1419 31.7009 56.7168C31.3756 56.2918 30.9355 56.0792 30.3806 56.0792C29.9978 56.0792 29.6917 56.1809 29.462 56.3842C29.2324 56.5875 29.1176 56.9017 29.1176 57.3267C29.1176 58.2139 29.7682 58.8423 31.0694 59.2119C32.3707 59.5815 32.5142 61.3281 30.237 60.8476C27.9599 60.367 26.8213 59.138 26.8213 57.1604C26.8213 56.5135 26.9552 55.9591 27.2231 55.497C27.5102 55.0165 27.912 54.6469 28.4287 54.3881C28.9645 54.1294 29.6151 54 30.3806 54C31.7775 54 32.8012 54.5822 33.4519 55.7465C33.9685 54.6191 34.8966 54.0554 36.2361 54.0554C37.6713 54.0554 38.6568 54.6376 39.1926 55.802C39.9389 54.6376 41.0679 54.0554 42.5796 54.0554C45.5265 54.0554 47 55.4693 47 58.297C47 58.297 47 64.9373 47 69.1921C47.0035 70.21 44.4992 70.21 44.5028 69.1921C44.5063 68.1743 44.5028 58.2693 44.5028 58.2693C44.5028 56.8647 43.8235 56.1624 42.4648 56.1624C41.0679 56.1624 40.3694 56.8924 40.3694 58.3525C40.3694 58.3525 40.3789 68.2426 40.3694 69.1921C40.36 70.1416 37.8592 70.0238 37.8722 69.1921ZM26.6778 69.1921C23.9988 69.1921 22.6593 67.9631 22.6593 65.505V58.2693C22.6593 56.8647 21.9704 56.1624 20.5926 56.1624C19.1957 56.1624 18.4972 56.8924 18.4972 58.3525V64.9228C18.4972 66.2905 19.2148 67.0852 20.65 67.307L20.1333 69.1921C18.9086 69.0628 17.9136 68.6746 17.1481 68.0278C16.3827 67.3809 16 66.3921 16 65.0614V58.4357C16 55.5155 17.5309 54.0554 20.5926 54.0554C23.616 54.0554 25.1278 55.4693 25.1278 58.297V65.5604C25.1278 66.7248 25.6923 67.307 26.8213 67.307H30.2657L27.2231 63.1208H29.9213L33.6528 68.3605L33.1648 69.1921H26.6778Z" fill="black"/>
<path d="M23.223 71C22.1845 70.8785 21.363 70.5442 20.7585 69.9973C20.1695 69.4504 19.875 68.6452 19.875 67.5818V63.0469C19.875 60.0541 21.5257 58.5576 24.8272 58.5576C28.1287 58.5576 29.7795 60.092 29.7795 63.1609V65.9866L33.081 68.4705C33.4375 68.7592 33.8173 68.9035 34.2203 68.9035C34.6233 68.9035 34.8248 68.5996 34.8248 67.992V62.1582C34.8248 59.7578 36.057 58.5576 38.5215 58.5576C40.986 58.5576 42.2183 59.7198 42.2183 62.0442C42.2183 62.0442 42.2183 70.2936 42.2183 71C42.2183 71.7064 40.1955 71.8879 40.1955 71C40.1955 70.1121 40.1955 62.0214 40.1955 62.0214C40.1955 60.8668 39.6375 60.2895 38.5215 60.2895C37.4055 60.2895 36.8475 60.8896 36.8475 62.0898V68.1743C36.8475 69.101 36.6692 69.8074 36.3127 70.2936C35.9562 70.7645 35.437 71 34.755 71C34.1815 71 33.6623 70.8861 33.1973 70.6582C32.7323 70.4303 32.2285 70.1113 31.686 69.7011L29.7795 68.2426C29.7795 69.0934 29.5237 69.7694 29.0122 70.2708C28.5162 70.7569 27.8343 71 26.9663 71C26.1138 71 25.4472 70.7645 24.9668 70.2936C24.4862 69.8074 24.246 69.1466 24.246 68.311C24.246 67.445 24.5173 66.769 25.0598 66.2828C25.5403 65.8423 26.1758 65.622 26.9663 65.622C27.2143 65.622 27.4778 65.6448 27.7568 65.6903V63.0925C27.7568 61.2239 26.7802 60.2895 24.8272 60.2895C22.8742 60.2895 21.8977 61.2011 21.8977 63.0241V67.4906C21.8977 68.6148 22.479 69.2681 23.6415 69.4504C24.804 69.6327 24.2615 71.1215 23.223 71ZM26.8732 69.496C27.4622 69.496 27.7568 69.1162 27.7568 68.3566V67.3083C27.6483 67.2779 27.532 67.2551 27.408 67.2399C27.2995 67.2096 27.1987 67.1944 27.1058 67.1944C26.3772 67.1944 26.013 67.5894 26.013 68.3794C26.013 69.1238 26.2997 69.496 26.8732 69.496Z" fill="url(#paint10_linear_10_39)"/>
<path d="M37.8852 69.1921C37.8852 68.6605 37.8852 58.2693 37.8852 58.2693C37.8852 56.8647 37.3406 56.1624 36.2514 56.1624C35.1622 56.1624 34.5125 56.9571 34.3024 58.5466H32.3533C32.2768 57.7518 32.0666 57.1419 31.7227 56.7168C31.3978 56.2918 30.9583 56.0792 30.4042 56.0792C30.022 56.0792 29.7163 56.1809 29.487 56.3842C29.2577 56.5875 29.143 56.9017 29.143 57.3267C29.143 58.2139 29.7927 58.8423 31.0921 59.2119C32.3915 59.5815 32.5348 61.3281 30.2609 60.8476C27.987 60.367 26.85 59.138 26.85 57.1604C26.85 56.5135 26.9838 55.9591 27.2513 55.497C27.5379 55.0165 27.9392 54.6469 28.4551 54.3881C28.9902 54.1294 29.6399 54 30.4042 54C31.7991 54 32.8214 54.5822 33.4711 55.7465C33.9871 54.6191 34.9138 54.0554 36.2514 54.0554C37.6846 54.0554 38.6687 54.6376 39.2037 55.802C39.9489 54.6376 41.0763 54.0554 42.5859 54.0554C45.5286 54.0554 47 55.4693 47 58.297C47 58.297 47 64.9373 47 69.1921C47 70.21 44.5063 70.21 44.5063 69.1921C44.5063 68.1743 44.5063 58.2693 44.5063 58.2693C44.5063 56.8647 43.828 56.1624 42.4713 56.1624C41.0763 56.1624 40.3789 56.8924 40.3789 58.3525C40.3789 58.3525 40.3789 68.4705 40.3789 69.1921C40.3789 69.9138 37.8852 69.7238 37.8852 69.1921Z" fill="black"/>
<path d="M26.85 67.307H30.2895L27.2513 63.1208H29.9456L33.6718 68.3605L33.1845 69.1921H26.85L26.85 67.307Z" fill="black"/>
<path d="M34.8248 62.1582C34.8248 59.7578 36.057 58.5576 38.5215 58.5576C40.986 58.5576 42.2183 59.7198 42.2183 62.0442C42.2183 62.0442 42.2183 70.2936 42.2183 71C42.2183 71.7064 40.1955 71.8879 40.1955 71C40.1955 70.1121 40.1955 62.0214 40.1955 62.0214C40.1955 60.8668 39.6375 60.2895 38.5215 60.2895C37.4055 60.2895 36.8475 60.8896 36.8475 62.0898L34.8248 62.1582Z" fill="url(#paint11_linear_10_39)"/>
</g>
<defs>
<filter id="filter0_g_10_39" x="11.5" y="-2.5" width="211" height="86" filterUnits="userSpaceOnUse" color-interpolation-filters="sRGB">
<feFlood flood-opacity="0" result="BackgroundImageFix"/>
<feBlend mode="normal" in="SourceGraphic" in2="BackgroundImageFix" result="shape"/>
<feTurbulence type="fractalNoise" baseFrequency="0.1388888955116272 0.1388888955116272" numOctaves="3" seed="2566" />
<feDisplacementMap in="shape" scale="47" xChannelSelector="R" yChannelSelector="G" result="displacedImage" width="100%" height="100%" />
<feMerge result="effect1_texture_10_39">
<feMergeNode in="displacedImage"/>
</feMerge>
</filter>
<linearGradient id="paint0_linear_10_39" x1="35" y1="40.5" x2="199" y2="40.5" gradientUnits="userSpaceOnUse">
<stop stop-color="#1E5A8C"/>
<stop offset="1" stop-color="#FFC760"/>
</linearGradient>
<linearGradient id="paint1_linear_10_39" x1="35" y1="40.5" x2="199" y2="40.5" gradientUnits="userSpaceOnUse">
<stop stop-color="#1E5A8C"/>
<stop offset="1" stop-color="#FFC760"/>
</linearGradient>
<linearGradient id="paint2_linear_10_39" x1="35" y1="40.5" x2="199" y2="40.5" gradientUnits="userSpaceOnUse">
<stop stop-color="#1E5A8C"/>
<stop offset="1" stop-color="#FFC760"/>
</linearGradient>
<linearGradient id="paint3_linear_10_39" x1="35" y1="40.5" x2="199" y2="40.5" gradientUnits="userSpaceOnUse">
<stop stop-color="#1E5A8C"/>
<stop offset="1" stop-color="#FFC760"/>
</linearGradient>
<linearGradient id="paint4_linear_10_39" x1="35" y1="40.5" x2="199" y2="40.5" gradientUnits="userSpaceOnUse">
<stop stop-color="#1E5A8C"/>
<stop offset="1" stop-color="#FFC760"/>
</linearGradient>
<linearGradient id="paint5_linear_10_39" x1="35" y1="40.5" x2="199" y2="40.5" gradientUnits="userSpaceOnUse">
<stop stop-color="#1E5A8C"/>
<stop offset="1" stop-color="#FFC760"/>
</linearGradient>
<linearGradient id="paint6_linear_10_39" x1="35" y1="40.5" x2="199" y2="40.5" gradientUnits="userSpaceOnUse">
<stop stop-color="#1E5A8C"/>
<stop offset="1" stop-color="#FFC760"/>
</linearGradient>
<linearGradient id="paint7_linear_10_39" x1="35" y1="40.5" x2="199" y2="40.5" gradientUnits="userSpaceOnUse">
<stop stop-color="#1E5A8C"/>
<stop offset="1" stop-color="#FFC760"/>
</linearGradient>
<linearGradient id="paint8_linear_10_39" x1="35" y1="40.5" x2="199" y2="40.5" gradientUnits="userSpaceOnUse">
<stop stop-color="#1E5A8C"/>
<stop offset="1" stop-color="#FFC760"/>
</linearGradient>
<linearGradient id="paint9_linear_10_39" x1="35" y1="40.5" x2="199" y2="40.5" gradientUnits="userSpaceOnUse">
<stop stop-color="#1E5A8C"/>
<stop offset="1" stop-color="#FFC760"/>
</linearGradient>
<linearGradient id="paint10_linear_10_39" x1="38.5215" y1="58.5576" x2="38.5215" y2="71" gradientUnits="userSpaceOnUse">
<stop stop-color="#E8CA6A"/>
<stop offset="1" stop-color="#C39C1A"/>
</linearGradient>
<linearGradient id="paint11_linear_10_39" x1="38.5215" y1="58.5576" x2="38.5215" y2="71" gradientUnits="userSpaceOnUse">
<stop stop-color="#E8CA6A"/>
<stop offset="1" stop-color="#C39C1A"/>
</linearGradient>
<clipPath id="clip0_10_39">
<rect width="214" height="89" fill="white"/>
</clipPath>
</defs>
</svg>
